<svg xmlns="http://www.w3.org/2000/svg" width="41.5" height="40" viewBox="42 0 41.5 40"><path fill="none" stroke="currentColor" d="M80.318 20c0-1.978.975-4.088.399-5.873-.597-1.85-2.64-2.976-3.753-4.516-1.125-1.555-1.566-3.852-3.113-4.983-1.529-1.121-3.832-.841-5.671-1.441C66.406 2.607 64.717 1 62.75 1c-1.966 0-3.656 1.607-5.431 2.187-1.839.601-4.142.321-5.672 1.441-1.546 1.132-1.987 3.428-3.112 4.983-1.114 1.54-3.156 2.666-3.753 4.516-.576 1.785.399 3.895.399 5.873 0 1.979-.975 4.088-.399 5.873.597 1.85 2.639 2.976 3.753 4.516 1.125 1.555 1.566 3.852 3.112 4.983 1.531 1.121 3.833.841 5.672 1.441 1.775.58 3.465 2.187 5.431 2.187 1.967 0 3.656-1.607 5.431-2.187 1.839-.601 4.142-.32 5.671-1.441 1.547-1.132 1.988-3.429 3.113-4.983 1.113-1.54 3.156-2.666 3.753-4.516.575-1.785-.4-3.894-.4-5.873"/><g fill="none" stroke="currentColor" stroke-linejoin="round"><path stroke-linecap="round" d="M60.557 13.619c0-.865-.306-1.657-.811-2.265a3.304 3.304 0 0 0-2.548-1.211c-1.854 0-3.358 1.556-3.358 3.476v14.083c0 1.92 1.504 3.477 3.358 3.477 1.855 0 3.359-1.557 3.359-3.477v-5.937s.095-.743-.521-1.38c-.499-.516-1.29-.551-1.29-.551h-2.391"/><path stroke-linecap="square" d="M64.939 17.059c0-1.946 1.504-3.522 3.361-3.522 1.855 0 3.359 1.576 3.359 3.522v10.597c0 1.946-1.504 3.523-3.359 3.523-1.857 0-3.361-1.577-3.361-3.523V17.059h0z"/></g></svg>