<?xml version="1.0" encoding="utf-8"?>
<!-- Generator: Adobe Illustrator 16.0.0, SVG Export Plug-In . SVG Version: 6.00 Build 0)  -->
<!DOCTYPE svg PUBLIC "-//W3C//DTD SVG 1.1//EN" "http://www.w3.org/Graphics/SVG/1.1/DTD/svg11.dtd">
<svg version="1.1" id="Layer_1" xmlns="http://www.w3.org/2000/svg" xmlns:xlink="http://www.w3.org/1999/xlink" x="0px" y="0px"
	 width="41.5px" height="40px" viewBox="42 0 41.5 40" enable-background="new 42 0 41.5 40" xml:space="preserve">
<title>mangologo</title>
<desc>Created with Sketch.</desc>
<path id="Fill-1" fill="none" stroke="currentColor" d="M80.318,20c0-1.978,0.975-4.088,0.399-5.873
	c-0.597-1.85-2.64-2.976-3.753-4.516c-1.125-1.555-1.566-3.852-3.113-4.983c-1.529-1.121-3.832-0.841-5.671-1.441
	C66.406,2.607,64.717,1,62.75,1c-1.966,0-3.656,1.607-5.431,2.187c-1.839,0.601-4.142,0.321-5.672,1.441
	c-1.546,1.132-1.987,3.428-3.112,4.983c-1.114,1.54-3.156,2.666-3.753,4.516c-0.576,1.785,0.399,3.895,0.399,5.873
	c0,1.979-0.975,4.088-0.399,5.873c0.597,1.85,2.639,2.976,3.753,4.516c1.125,1.555,1.566,3.852,3.112,4.983
	c1.531,1.121,3.833,0.841,5.672,1.441C59.094,37.393,60.784,39,62.75,39c1.967,0,3.656-1.607,5.431-2.187
	c1.839-0.601,4.142-0.32,5.671-1.441c1.547-1.132,1.988-3.429,3.113-4.983c1.113-1.54,3.156-2.666,3.753-4.516
	C81.293,24.088,80.318,21.979,80.318,20"/>
<g>
	<path id="Stroke-3" fill="none" stroke="currentColor" stroke-linecap="round" stroke-linejoin="round" d="M60.557,13.619
		c0-0.865-0.306-1.657-0.811-2.265c-0.616-0.742-1.529-1.211-2.548-1.211c-1.854,0-3.358,1.556-3.358,3.476v14.083
		c0,1.92,1.504,3.477,3.358,3.477c1.855,0,3.359-1.557,3.359-3.477v-5.937c0,0,0.095-0.743-0.521-1.38
		c-0.499-0.516-1.29-0.551-1.29-0.551h-2.391"/>
	<path id="Stroke-4" fill="none" stroke="currentColor" stroke-linecap="square" stroke-linejoin="round" d="M64.939,17.059
		c0-1.946,1.504-3.522,3.361-3.522c1.855,0,3.359,1.576,3.359,3.522v10.597c0,1.946-1.504,3.523-3.359,3.523
		c-1.857,0-3.361-1.577-3.361-3.523V17.059L64.939,17.059z"/>
</g>
</svg>
