<svg xmlns="http://www.w3.org/2000/svg" width="264.25" height="274.98" viewBox="0 0 264.25 274.98"><title>bubble</title><path d="M262.92 95c-4.35-13.39-19.21-21.54-27.32-32.68s-11.4-27.87-22.66-36.07-27.94-6.08-41.28-10.43C158.74 11.63 146.44 0 132.12 0s-26.61 11.63-39.53 15.82C79.2 20.17 62.44 18.14 51.3 26.25S36.83 51.06 28.64 62.32 5.67 81.61 1.33 95c-4.19 12.92 2.9 28.18 2.9 42.5s-7.1 29.58-2.9 42.5c4.35 13.39 19.21 21.54 27.32 32.68S40 240.54 51.3 248.73s27.9 6.08 41.29 10.43c12.92 4.19 25.22 15.82 39.53 15.82s26.62-11.63 39.53-15.82c13.39-4.35 30.15-2.32 41.29-10.43s14.47-24.81 22.66-36.06 23-19.29 27.32-32.68c4.19-12.92-2.9-28.18-2.9-42.5s7.09-29.58 2.9-42.49z"/></svg>