<svg xmlns="http://www.w3.org/2000/svg" viewBox="0 0 128.1 40"><path d="M83 13.8c-.5-2-2.7-3-4-4.8S77.5 5 76 3.8a7.8 7.8 0 0 0-3.8-1 10.7 10.7 0 0 1-3.8-1.2A11.4 11.4 0 0 0 64.6 0 6 6 0 0 0 61 1a13 13 0 0 1-3.6 1.5 32.6 32.6 0 0 0-4 .7c-2.7.8-3 3.8-4.4 6s-3.3 2.7-4 4.7 0 3.2.3 4.8a18 18 0 0 1-.4 5 5 5 0 0 0 1 4c1 1.2 2.2 2 3 3.3s1.7 4.2 3.3 5.3 4 1 6 1.5a31.6 31.6 0 0 1 3.8 1.8 4.8 4.8 0 0 0 4 0c1.2-.5 2.3-1.3 3.5-1.7a22 22 0 0 1 3.8-.8 5 5 0 0 0 3.2-1.7 19.2 19.2 0 0 0 1.8-3.2c1.2-2.3 4-3.5 4.7-6s-.4-4-.4-6.2 1-4.3.5-6.2zm-1.2 9a6.6 6.6 0 0 1 0 3 6.5 6.5 0 0 1-2 2.5 15.4 15.4 0 0 0-3 4.2 6.6 6.6 0 0 1-1.8 2.7 6 6 0 0 1-3 .8 12 12 0 0 0-5 1.6 5.4 5.4 0 0 1-3 1.2 8 8 0 0 1-3-1l-2.4-1.2A12 12 0 0 0 56 36a8.8 8.8 0 0 1-3-.7 6.7 6.7 0 0 1-2-2.7 15.4 15.4 0 0 0-3-4.2 6.6 6.6 0 0 1-2-2.4 6 6 0 0 1 0-3.2 15.7 15.7 0 0 0 0-5.4 6.6 6.6 0 0 1 0-3 6.5 6.5 0 0 1 2-2.6 15.4 15.4 0 0 0 3-4.2A6.6 6.6 0 0 1 53 5a6 6 0 0 1 3-1 12 12 0 0 0 5-1.5 5.7 5.7 0 0 1 3-1.3 7.5 7.5 0 0 1 3 1l2.4 1.2A12 12 0 0 0 72 4a8.8 8.8 0 0 1 3 .7 6.7 6.7 0 0 1 2 2.7 15.4 15.4 0 0 0 3 4.2 6.6 6.6 0 0 1 2 2.4 6 6 0 0 1 0 3.2 12.4 12.4 0 0 0-.4 2.7 12.7 12.7 0 0 0 .2 2.7c.2 1.2 0-1 0 0zM12.3 11a5 5 0 0 0-3.8 1.7 4.8 4.8 0 0 0-8.5 3v15a1 1 0 0 0 2 0v-15c0-3.5 5.4-3.5 5.4 0v15a1 1 0 0 0 2 0v-15c0-3.5 5.4-3.5 5.4 0v15a1 1 0 0 0 2 0v-15a4.4 4.4 0 0 0-4.5-4.8zM102.8 11a1 1 0 0 0-1 1v15c0 3.5-5.4 3.5-5.4 0V12a1 1 0 0 0-2 0v15c0 3.5-5.4 3.5-5.4 0V12a1 1 0 0 0-2 0v15a5 5 0 0 0 8.6 3 5 5 0 0 0 8.6-3V12a1.6 1.6 0 0 0-1.4-1zM36.4 11a4.8 4.8 0 0 0-4.8 4.7v15a1 1 0 0 0 2 0v-15c0-3.5 5.4-3.5 5.4 0v15a1 1 0 0 0 2 0v-15a4.5 4.5 0 0 0-4.6-4.8zM24.4 11a5 5 0 0 0-4 2c-.4.7-1.5 4.6.6 3.6s.6-1.4 1-2a2.7 2.7 0 0 1 1.7-1.5 2.7 2.7 0 0 1 3.3 2.7v11.7c0 3.5-5.4 3.5-5.4 0V23a2.7 2.7 0 0 1 2.7-2.8h1a1 1 0 0 0 0-2h-1a4.8 4.8 0 0 0-4.8 4.8v4.5a4.8 4.8 0 0 0 4.8 4.8 4.8 4.8 0 0 0 4.8-4.8V15.7a4.7 4.7 0 0 0-4.6-4.8z" fill="#010101"/><path d="M60 18.3h-2.7a1 1 0 0 0 0 2H60a1 1 0 0 1 1 1V28c0 3.5-5.4 3.5-5.4 0V12.6c0-2.4 3.3-3.8 4.8-1.7a5.6 5.6 0 0 1 .7 2 1 1 0 0 0 1.5.6c1.3-.8 0-3.2-.7-4-2.8-3.4-8.4-1.2-8.4 3V28a4.8 4.8 0 1 0 9.6 0v-6.5a3.2 3.2 0 0 0-1-2.3 4 4 0 0 0-2-1zM70.2 11.7a4.8 4.8 0 0 0-4.8 4.8v11.3a4.8 4.8 0 0 0 4.8 4.8 4.8 4.8 0 0 0 4.8-4.8V16.5a5 5 0 0 0-4.8-4.8zm2.7 16c0 3.6-5.5 3.6-5.5 0V16.6c0-3.5 5.4-3.5 5.4 0v11.3zM111.2 11a4.8 4.8 0 0 0-4.8 4.7v12c0 5 7.3 6.6 9.2 1.8.3-.8.8-2.6-.5-2.8s-1 1.7-1.5 2.5a2.7 2.7 0 0 1-5-1.5v-12c0-3.5 5.5-3.5 5.5 0V19a2.7 2.7 0 0 1-2.7 2.7h-1a1 1 0 0 0 0 2h1a4.8 4.8 0 0 0 4.8-4.4v-3.7a5 5 0 0 0-4.8-4.7zM123.2 11a4.2 4.2 0 0 0-2.7.8V8a1 1 0 0 0-2 0v19.8a4.8 4.8 0 0 0 9.6.4V15.7a5 5 0 0 0-4.8-4.8zm2.8 16.8c0 3.5-5.4 3.5-5.4 0v-12c0-3.6 5.4-3.6 5.4 0v12z" fill="#010101"/></svg>
